<svg xmlns="http://www.w3.org/2000/svg" viewBox="0 0 256 256">
    <path
        d="M228.61,86.63,148.1,34.8a23.93,23.93,0,0,0-24.2,0L43.39,86.63a24,24,0,0,0-12,20.78V168.6a24,24,0,0,0,12,20.78l80.51,51.83a23.93,23.93,0,0,0,24.2,0l80.51-51.83a24,24,0,0,0,12-20.78V107.41A24,24,0,0,0,228.61,86.63ZM128,48.05l74.3,47.9L128,144,53.7,95.95ZM47.39,101.4,128,153.22,208.61,101.4,128,49.58ZM40,168.6a8,8,0,0,1-4-6.93V107.41a8,8,0,0,1,4-6.93l80.5-51.83a7.91,7.91,0,0,1,8.06,0l80.5,51.83a8,8,0,0,1,4,6.93V161.67a8,8,0,0,1-4,6.93l-80.5,51.83a7.91,7.91,0,0,1-8.06,0Z"
        fill="currentColor" stroke="none" />
</svg>